<svg width="180" height="311" viewBox="0 0 180 311" fill="none" xmlns="http://www.w3.org/2000/svg">
<g opacity="0.1">
<line x1="77.4741" y1="10.0132" x2="77.4741" y2="301.013" stroke="#65371F" stroke-width="17" stroke-linecap="round"/>
<path d="M70.4741 270.013C70.4741 294.314 102.94 310.513 66.9741 310.513C31.0085 310.513 0 289.814 0 265.513C0 241.213 29.1559 221.513 65.1214 221.513C101.087 221.513 70.4741 245.713 70.4741 270.013Z" fill="#65371F"/>
<line x1="77.4722" y1="8.5" x2="171.477" y2="8.5" stroke="#65371F" stroke-width="17" stroke-linecap="round"/>
<path d="M156.474 277.644L156.472 277.682C156.414 278.835 156.097 279.902 155.454 280.808C154.818 281.703 153.931 282.345 152.88 282.772V282.773L98.4565 306.492L98.4438 306.497C97.1593 307.042 95.7969 307.233 94.5347 306.688C93.2802 306.146 92.4714 305.028 91.9575 303.721L91.9526 303.709L91.9487 303.698C91.4555 302.379 91.3011 301.021 91.7974 299.774C92.3011 298.509 93.3521 297.662 94.6274 297.124H94.6284L106.713 291.837V263.048L94.6274 257.943L94.6167 257.938C93.3422 257.389 92.282 256.544 91.7759 255.286C91.2724 254.034 91.4428 252.684 91.9604 251.387H91.9614C92.47 250.067 93.2666 248.929 94.5103 248.366C95.778 247.791 97.1514 247.972 98.4438 248.521L98.4517 248.525L152.875 272L152.898 272.01C153.991 272.504 154.907 273.2 155.543 274.142C156.184 275.09 156.474 276.188 156.474 277.364V277.644ZM116.539 267.137V287.614L140.357 277.236L116.539 267.137Z" fill="#65371F" stroke="#65371F" stroke-width="3"/>
<path d="M156.474 234.056C156.474 235.438 156.129 236.75 155.177 237.707C154.224 238.665 152.914 239.013 151.535 239.013H96.4136C95.034 239.013 93.7245 238.665 92.771 237.707C91.8189 236.75 91.4741 235.438 91.4741 234.056C91.4742 232.179 92.5087 230.621 94.0874 229.376L137.501 194.974H96.4136C95.034 194.974 93.7245 194.626 92.771 193.667C91.819 192.711 91.4741 191.399 91.4741 190.017C91.4742 188.625 91.8157 187.304 92.7632 186.338C93.7158 185.368 95.0288 185.013 96.4136 185.013H151.535C152.919 185.013 154.232 185.368 155.185 186.338C156.133 187.304 156.474 188.625 156.474 190.017C156.474 191.728 155.554 193.197 154.172 194.43L153.889 194.673L153.875 194.686L153.86 194.698L110.456 229.052H151.535C152.919 229.052 154.232 229.407 155.185 230.377C156.133 231.343 156.474 232.664 156.474 234.056Z" fill="#65371F" stroke="#65371F" stroke-width="3"/>
<path d="M156.474 171.534C156.474 172.811 156.113 174.04 155.126 174.906C154.174 175.742 152.872 176.013 151.533 176.013H96.4155C95.086 176.013 93.8162 175.734 92.8521 174.932L92.8374 174.919L92.8218 174.906C91.8351 174.04 91.4741 172.811 91.4741 171.534C91.4741 170.251 91.8375 169.032 92.7925 168.147L92.8218 168.121L92.8521 168.094C93.8162 167.293 95.086 167.013 96.4155 167.013H151.533C152.872 167.013 154.174 167.284 155.126 168.121L155.141 168.133L155.156 168.147C156.111 169.032 156.474 170.251 156.474 171.534Z" fill="#65371F" stroke="#65371F" stroke-width="3"/>
<path d="M156.474 153.653C156.474 154.918 156.081 156.114 155.074 156.952C154.119 157.745 152.852 158.013 151.535 158.013H96.4136C95.0377 158.013 93.7299 157.67 92.7759 156.72C91.8207 155.77 91.4741 154.464 91.4741 153.09C91.4741 151.706 91.8182 150.391 92.769 149.432C93.7223 148.471 95.0327 148.121 96.4136 148.121H135.995L113.094 132.624L113.085 132.618C111.218 131.335 110.251 129.479 110.25 127.208C110.25 125.24 111.377 123.676 113.085 122.502L113.094 122.497L136.133 106.906H96.4136C95.0377 106.906 93.7299 106.562 92.7759 105.613C91.8207 104.662 91.4741 103.357 91.4741 101.983C91.4741 100.598 91.8182 99.284 92.769 98.3247C93.7223 97.3632 95.0327 97.0132 96.4136 97.0132H151.535C152.916 97.0132 154.226 97.3632 155.179 98.3247C156.13 99.284 156.474 100.598 156.474 101.983C156.474 103.972 155.53 105.588 153.913 106.791L153.581 107.026L153.576 107.029L122.669 127.658L153.575 148.231V148.232C155.502 149.461 156.474 151.337 156.474 153.653Z" fill="#65371F" stroke="#65371F" stroke-width="3"/>
<path d="M156.474 81.978C156.474 83.3625 156.124 84.6719 155.172 85.6304L155.173 85.6313C155.171 85.6341 155.167 85.6364 155.165 85.6392C155.158 85.646 155.152 85.6538 155.145 85.6606L155.144 85.6597C154.195 86.6304 152.912 87.0132 151.535 87.0132H113.331C106.366 87.0131 100.882 85.358 97.1763 81.7759L96.8188 81.4185C93.154 77.5996 91.4741 71.8004 91.4741 64.3491V52.7261C91.4741 45.2733 93.1546 39.4629 96.814 35.6138L96.8228 35.603L97.9009 36.647L96.8237 35.603C100.53 31.777 106.142 30.0132 113.331 30.0132L151.535 30.0132C152.925 30.0132 154.221 30.4028 155.173 31.395C156.116 32.3771 156.474 33.6924 156.474 35.0972C156.474 36.4817 156.124 37.791 155.172 38.7495L155.173 38.7505C155.171 38.7532 155.167 38.7556 155.165 38.7583C155.158 38.7651 155.152 38.773 155.145 38.7798L155.144 38.7788C154.195 39.7496 152.912 40.1323 151.535 40.1323H113.331C110.03 40.1324 107.571 40.5575 105.856 41.3091C104.267 42.0189 103.144 43.1812 102.449 44.8706C101.717 46.6833 101.306 49.2718 101.306 52.7261V64.3491C101.306 67.7763 101.718 70.3318 102.449 72.1089L102.452 72.1157C103.15 73.8397 104.274 75.01 105.856 75.7163C107.571 76.468 110.029 76.894 113.331 76.894H151.535C152.925 76.894 154.221 77.2837 155.173 78.2759C156.116 79.258 156.474 80.5733 156.474 81.978Z" fill="#65371F" stroke="#65371F" stroke-width="3"/>
</g>
</svg>
