<svg width="92" height="35" viewBox="0 0 92 35" fill="none" xmlns="http://www.w3.org/2000/svg">
<path d="M0 29.5V26.8333H24V29.5H0ZM0 18.8333V16.1667H24V18.8333H0ZM0 8.16667V5.5H24V8.16667H0Z" fill="#FAFAFA"/>
<path d="M42.2 23C41.8053 23 41.608 22.8027 41.608 22.408V12.92C41.608 12.5253 41.8053 12.328 42.2 12.328C42.4613 12.328 42.6773 12.456 42.848 12.712L46.696 18.528L46.44 18.568L50.304 12.712C50.464 12.456 50.7013 12.328 51.016 12.328C51.3413 12.328 51.504 12.5253 51.504 12.92V22.408C51.504 22.8027 51.3093 23 50.92 23C50.5253 23 50.328 22.8027 50.328 22.408V14.096L50.688 14.216L47.216 19.392C47.0453 19.6427 46.808 19.768 46.504 19.768C46.28 19.768 46.0827 19.6427 45.912 19.392L42.44 14.216L42.784 14.32V22.408C42.784 22.8027 42.5893 23 42.2 23ZM55.5654 19.512V19.96C55.5654 20.6693 55.6987 21.1573 55.9654 21.424C56.232 21.6907 56.7254 21.824 57.4454 21.824H58.7574C59.344 21.824 59.7734 21.7627 60.0454 21.64C60.3227 21.512 60.5014 21.2907 60.5814 20.976C60.624 20.8 60.6907 20.664 60.7814 20.568C60.8774 20.472 61.0187 20.424 61.2054 20.424C61.4027 20.424 61.552 20.4773 61.6534 20.584C61.7547 20.6853 61.7894 20.8347 61.7574 21.032C61.656 21.6987 61.3547 22.1947 60.8534 22.52C60.3574 22.84 59.6587 23 58.7574 23H57.4454C56.4054 23 55.6347 22.752 55.1334 22.256C54.6374 21.76 54.3894 20.9947 54.3894 19.96V18.12C54.3894 17.064 54.6374 16.2907 55.1334 15.8C55.6347 15.304 56.4054 15.0613 57.4454 15.072H58.7574C59.7974 15.072 60.5654 15.32 61.0614 15.816C61.5574 16.3067 61.8054 17.0747 61.8054 18.12V18.92C61.8054 19.3147 61.6107 19.512 61.2214 19.512H55.5654ZM57.4454 16.248C56.7254 16.2373 56.232 16.3653 55.9654 16.632C55.6987 16.8987 55.5654 17.3947 55.5654 18.12V18.336H60.6294V18.12C60.6294 17.4 60.496 16.9093 60.2294 16.648C59.968 16.3813 59.4774 16.248 58.7574 16.248H57.4454ZM65.2781 23C64.8835 23 64.6861 22.8027 64.6861 22.408V15.656C64.6861 15.2667 64.8835 15.072 65.2781 15.072C65.6675 15.072 65.8621 15.2667 65.8621 15.656V16.088C66.4061 15.4107 67.2675 15.072 68.4461 15.072H68.8941C69.9341 15.072 70.7021 15.32 71.1981 15.816C71.6941 16.312 71.9421 17.08 71.9421 18.12V22.408C71.9421 22.8027 71.7475 23 71.3581 23C70.9635 23 70.7661 22.8027 70.7661 22.408V18.12C70.7661 17.4 70.6301 16.9093 70.3581 16.648C70.0915 16.3813 69.6035 16.248 68.8941 16.248H68.4461C67.7421 16.248 67.1528 16.3413 66.6781 16.528C66.2035 16.7093 65.9315 16.9973 65.8621 17.392V22.408C65.8621 22.8027 65.6675 23 65.2781 23ZM81.5106 15.072C81.9053 15.072 82.1026 15.2667 82.1026 15.656V22.408C82.1026 22.8027 81.9053 23 81.5106 23C81.1213 23 80.9266 22.8027 80.9266 22.408V21.984C80.3773 22.6613 79.516 23 78.3426 23H77.8946C76.8546 23 76.0866 22.752 75.5906 22.256C75.0946 21.7547 74.8466 20.984 74.8466 19.944V15.656C74.8466 15.2667 75.0413 15.072 75.4306 15.072C75.8253 15.072 76.0226 15.2667 76.0226 15.656V19.944C76.0226 20.664 76.156 21.1573 76.4226 21.424C76.6946 21.6907 77.1853 21.824 77.8946 21.824H78.3426C79.0466 21.824 79.636 21.7307 80.1106 21.544C80.5853 21.352 80.8573 21.0613 80.9266 20.672V15.656C80.9266 15.2667 81.1213 15.072 81.5106 15.072Z" fill="#FAFAFA"/>
</svg>
