<svg width="96" height="38" viewBox="0 0 96 38" fill="none" xmlns="http://www.w3.org/2000/svg">
<g filter="url(#filter0_d_49_2460)">
<path d="M4 29.5V26.8333H28V29.5H4ZM4 18.8333V16.1667H28V18.8333H4ZM4 8.16667V5.5H28V8.16667H4Z" fill="#E6D8BD"/>
</g>
<g filter="url(#filter1_d_49_2460)">
<path d="M46.2 23C45.8053 23 45.608 22.8027 45.608 22.408V12.92C45.608 12.5253 45.8053 12.328 46.2 12.328C46.4613 12.328 46.6773 12.456 46.848 12.712L50.696 18.528L50.44 18.568L54.304 12.712C54.464 12.456 54.7013 12.328 55.016 12.328C55.3413 12.328 55.504 12.5253 55.504 12.92V22.408C55.504 22.8027 55.3093 23 54.92 23C54.5253 23 54.328 22.8027 54.328 22.408V14.096L54.688 14.216L51.216 19.392C51.0453 19.6427 50.808 19.768 50.504 19.768C50.28 19.768 50.0827 19.6427 49.912 19.392L46.44 14.216L46.784 14.32V22.408C46.784 22.8027 46.5893 23 46.2 23ZM59.5654 19.512V19.96C59.5654 20.6693 59.6987 21.1573 59.9654 21.424C60.232 21.6907 60.7254 21.824 61.4454 21.824H62.7574C63.344 21.824 63.7734 21.7627 64.0454 21.64C64.3227 21.512 64.5014 21.2907 64.5814 20.976C64.624 20.8 64.6907 20.664 64.7814 20.568C64.8774 20.472 65.0187 20.424 65.2054 20.424C65.4027 20.424 65.552 20.4773 65.6534 20.584C65.7547 20.6853 65.7894 20.8347 65.7574 21.032C65.656 21.6987 65.3547 22.1947 64.8534 22.52C64.3574 22.84 63.6587 23 62.7574 23H61.4454C60.4054 23 59.6347 22.752 59.1334 22.256C58.6374 21.76 58.3894 20.9947 58.3894 19.96V18.12C58.3894 17.064 58.6374 16.2907 59.1334 15.8C59.6347 15.304 60.4054 15.0613 61.4454 15.072H62.7574C63.7974 15.072 64.5654 15.32 65.0614 15.816C65.5574 16.3067 65.8054 17.0747 65.8054 18.12V18.92C65.8054 19.3147 65.6107 19.512 65.2214 19.512H59.5654ZM61.4454 16.248C60.7254 16.2373 60.232 16.3653 59.9654 16.632C59.6987 16.8987 59.5654 17.3947 59.5654 18.12V18.336H64.6294V18.12C64.6294 17.4 64.496 16.9093 64.2294 16.648C63.968 16.3813 63.4774 16.248 62.7574 16.248H61.4454ZM69.2781 23C68.8835 23 68.6861 22.8027 68.6861 22.408V15.656C68.6861 15.2667 68.8835 15.072 69.2781 15.072C69.6675 15.072 69.8621 15.2667 69.8621 15.656V16.088C70.4061 15.4107 71.2675 15.072 72.4461 15.072H72.8941C73.9341 15.072 74.7021 15.32 75.1981 15.816C75.6941 16.312 75.9421 17.08 75.9421 18.12V22.408C75.9421 22.8027 75.7475 23 75.3581 23C74.9635 23 74.7661 22.8027 74.7661 22.408V18.12C74.7661 17.4 74.6301 16.9093 74.3581 16.648C74.0915 16.3813 73.6035 16.248 72.8941 16.248H72.4461C71.7421 16.248 71.1528 16.3413 70.6781 16.528C70.2035 16.7093 69.9315 16.9973 69.8621 17.392V22.408C69.8621 22.8027 69.6675 23 69.2781 23ZM85.5106 15.072C85.9053 15.072 86.1026 15.2667 86.1026 15.656V22.408C86.1026 22.8027 85.9053 23 85.5106 23C85.1213 23 84.9266 22.8027 84.9266 22.408V21.984C84.3773 22.6613 83.516 23 82.3426 23H81.8946C80.8546 23 80.0866 22.752 79.5906 22.256C79.0946 21.7547 78.8466 20.984 78.8466 19.944V15.656C78.8466 15.2667 79.0413 15.072 79.4306 15.072C79.8253 15.072 80.0226 15.2667 80.0226 15.656V19.944C80.0226 20.664 80.156 21.1573 80.4226 21.424C80.6946 21.6907 81.1853 21.824 81.8946 21.824H82.3426C83.0466 21.824 83.636 21.7307 84.1106 21.544C84.5853 21.352 84.8573 21.0613 84.9266 20.672V15.656C84.9266 15.2667 85.1213 15.072 85.5106 15.072Z" fill="#E6D8BD"/>
</g>
<defs>
<filter id="filter0_d_49_2460" x="0" y="5.5" width="32" height="32" filterUnits="userSpaceOnUse" color-interpolation-filters="sRGB">
<feFlood flood-opacity="0" result="BackgroundImageFix"/>
<feColorMatrix in="SourceAlpha" type="matrix" values="0 0 0 0 0 0 0 0 0 0 0 0 0 0 0 0 0 0 127 0" result="hardAlpha"/>
<feOffset dy="4"/>
<feGaussianBlur stdDeviation="2"/>
<feComposite in2="hardAlpha" operator="out"/>
<feColorMatrix type="matrix" values="0 0 0 0 0 0 0 0 0 0 0 0 0 0 0 0 0 0 0.25 0"/>
<feBlend mode="normal" in2="BackgroundImageFix" result="effect1_dropShadow_49_2460"/>
<feBlend mode="normal" in="SourceGraphic" in2="effect1_dropShadow_49_2460" result="shape"/>
</filter>
<filter id="filter1_d_49_2460" x="32" y="0" width="68" height="43" filterUnits="userSpaceOnUse" color-interpolation-filters="sRGB">
<feFlood flood-opacity="0" result="BackgroundImageFix"/>
<feColorMatrix in="SourceAlpha" type="matrix" values="0 0 0 0 0 0 0 0 0 0 0 0 0 0 0 0 0 0 127 0" result="hardAlpha"/>
<feOffset dy="4"/>
<feGaussianBlur stdDeviation="2"/>
<feComposite in2="hardAlpha" operator="out"/>
<feColorMatrix type="matrix" values="0 0 0 0 0 0 0 0 0 0 0 0 0 0 0 0 0 0 0.25 0"/>
<feBlend mode="normal" in2="BackgroundImageFix" result="effect1_dropShadow_49_2460"/>
<feBlend mode="normal" in="SourceGraphic" in2="effect1_dropShadow_49_2460" result="shape"/>
</filter>
</defs>
</svg>
