<svg width="24" height="24" viewBox="0 0 24 24" fill="none" xmlns="http://www.w3.org/2000/svg">
<path d="M5.05263 24C4.10526 24 3.16842 23.7554 2.24211 23.2662C1.31579 22.777 0.568421 22.1321 0 21.3316C0.547368 21.3316 1.10526 21.1036 1.67368 20.6478C2.24211 20.1919 2.52632 19.5304 2.52632 18.6631C2.52632 17.5513 2.89474 16.6062 3.63158 15.8279C4.36842 15.0496 5.26316 14.6604 6.31579 14.6604C7.36842 14.6604 8.26316 15.0496 9 15.8279C9.73684 16.6062 10.1053 17.5513 10.1053 18.6631C10.1053 20.1308 9.61053 21.3871 8.62105 22.4323C7.63158 23.4774 6.44211 24 5.05263 24ZM5.05263 21.3316C5.74737 21.3316 6.34211 21.0703 6.83684 20.5477C7.33158 20.0251 7.57895 19.3969 7.57895 18.6631C7.57895 18.2851 7.45789 17.9682 7.21579 17.7125C6.97368 17.4567 6.67368 17.3289 6.31579 17.3289C5.95789 17.3289 5.65789 17.4567 5.41579 17.7125C5.17368 17.9682 5.05263 18.2851 5.05263 18.6631C5.05263 19.1746 4.99474 19.6415 4.87895 20.064C4.76316 20.4865 4.61053 20.8868 4.42105 21.2648C4.52632 21.3093 4.63158 21.3316 4.73684 21.3316H5.05263ZM12.3158 15.9947L8.8421 12.3255L20.1474 0.384256C20.3789 0.139649 20.6684 0.0117856 21.0158 0.000667111C21.3632 -0.0104514 21.6632 0.117412 21.9158 0.384256L23.6211 2.18546C23.8737 2.4523 24 2.76362 24 3.11941C24 3.47521 23.8737 3.78652 23.6211 4.05337L12.3158 15.9947Z" fill="#FAFAFA"/>
</svg>
