<svg width="24" height="24" viewBox="0 0 24 24" fill="none" xmlns="http://www.w3.org/2000/svg">
<path d="M0 24V18C0 17.15 0.213636 16.4375 0.640909 15.8625C1.06818 15.2875 1.58182 15 2.18182 15H5.75455C6.11818 15 6.46364 15.125 6.79091 15.375C7.11818 15.625 7.38182 15.9625 7.58182 16.3875C8.10909 17.3625 8.75909 18.125 9.53182 18.675C10.3045 19.225 11.1273 19.5 12 19.5C12.8909 19.5 13.7227 19.225 14.4955 18.675C15.2682 18.125 15.9091 17.3625 16.4182 16.3875C16.6545 15.9625 16.9318 15.625 17.25 15.375C17.5682 15.125 17.9 15 18.2455 15H21.8182C22.4364 15 22.9545 15.2875 23.3727 15.8625C23.7909 16.4375 24 17.15 24 18V24H16.3636V20.5875C15.7273 21.2125 15.0409 21.6875 14.3045 22.0125C13.5682 22.3375 12.8 22.5 12 22.5C11.2182 22.5 10.4545 22.3313 9.70909 21.9938C8.96364 21.6562 8.27273 21.175 7.63636 20.55V24H0ZM12 18C11.3091 18 10.6545 17.7812 10.0364 17.3438C9.41818 16.9062 8.9 16.3 8.48182 15.525C8.17273 14.9 7.78636 14.4063 7.32273 14.0438C6.85909 13.6813 6.35455 13.5 5.80909 13.5C6.20909 12.575 7.05455 11.8438 8.34545 11.3063C9.63636 10.7688 10.8545 10.5 12 10.5C13.1455 10.5 14.3636 10.7688 15.6545 11.3063C16.9455 11.8438 17.7909 12.575 18.1909 13.5C17.6636 13.5 17.1636 13.6813 16.6909 14.0438C16.2182 14.4063 15.8273 14.9 15.5182 15.525C15.1182 16.325 14.6091 16.9375 13.9909 17.3625C13.3727 17.7875 12.7091 18 12 18ZM3.27273 13.5C2.36364 13.5 1.59091 13.0625 0.954545 12.1875C0.318182 11.3125 0 10.25 0 9C0 7.725 0.318182 6.65625 0.954545 5.79375C1.59091 4.93125 2.36364 4.5 3.27273 4.5C4.2 4.5 4.97727 4.93125 5.60455 5.79375C6.23182 6.65625 6.54545 7.725 6.54545 9C6.54545 10.25 6.23182 11.3125 5.60455 12.1875C4.97727 13.0625 4.2 13.5 3.27273 13.5ZM20.7273 13.5C19.8182 13.5 19.0455 13.0625 18.4091 12.1875C17.7727 11.3125 17.4545 10.25 17.4545 9C17.4545 7.725 17.7727 6.65625 18.4091 5.79375C19.0455 4.93125 19.8182 4.5 20.7273 4.5C21.6545 4.5 22.4318 4.93125 23.0591 5.79375C23.6864 6.65625 24 7.725 24 9C24 10.25 23.6864 11.3125 23.0591 12.1875C22.4318 13.0625 21.6545 13.5 20.7273 13.5ZM12 9C11.0909 9 10.3182 8.5625 9.68182 7.6875C9.04545 6.8125 8.72727 5.75 8.72727 4.5C8.72727 3.225 9.04545 2.15625 9.68182 1.29375C10.3182 0.43125 11.0909 0 12 0C12.9273 0 13.7045 0.43125 14.3318 1.29375C14.9591 2.15625 15.2727 3.225 15.2727 4.5C15.2727 5.75 14.9591 6.8125 14.3318 7.6875C13.7045 8.5625 12.9273 9 12 9Z" fill="#FAFAFA"/>
</svg>
