<svg width="32" height="32" viewBox="0 0 32 32" fill="none" xmlns="http://www.w3.org/2000/svg">
<g filter="url(#filter0_d_49_2486)">
<path d="M9.05263 24C8.10526 24 7.16842 23.7554 6.24211 23.2662C5.31579 22.777 4.56842 22.1321 4 21.3316C4.54737 21.3316 5.10526 21.1036 5.67368 20.6478C6.24211 20.1919 6.52632 19.5304 6.52632 18.6631C6.52632 17.5513 6.89474 16.6062 7.63158 15.8279C8.36842 15.0496 9.26316 14.6604 10.3158 14.6604C11.3684 14.6604 12.2632 15.0496 13 15.8279C13.7368 16.6062 14.1053 17.5513 14.1053 18.6631C14.1053 20.1308 13.6105 21.3871 12.6211 22.4323C11.6316 23.4774 10.4421 24 9.05263 24ZM9.05263 21.3316C9.74737 21.3316 10.3421 21.0703 10.8368 20.5477C11.3316 20.0251 11.5789 19.3969 11.5789 18.6631C11.5789 18.2851 11.4579 17.9682 11.2158 17.7125C10.9737 17.4567 10.6737 17.3289 10.3158 17.3289C9.95789 17.3289 9.65789 17.4567 9.41579 17.7125C9.17368 17.9682 9.05263 18.2851 9.05263 18.6631C9.05263 19.1746 8.99474 19.6415 8.87895 20.064C8.76316 20.4865 8.61053 20.8868 8.42105 21.2648C8.52632 21.3093 8.63158 21.3316 8.73684 21.3316H9.05263ZM16.3158 15.9947L12.8421 12.3255L24.1474 0.384256C24.3789 0.139649 24.6684 0.0117856 25.0158 0.000667111C25.3632 -0.0104514 25.6632 0.117412 25.9158 0.384256L27.6211 2.18546C27.8737 2.4523 28 2.76362 28 3.11941C28 3.47521 27.8737 3.78652 27.6211 4.05337L16.3158 15.9947Z" fill="#65371F"/>
</g>
<defs>
<filter id="filter0_d_49_2486" x="0" y="0" width="32" height="32" filterUnits="userSpaceOnUse" color-interpolation-filters="sRGB">
<feFlood flood-opacity="0" result="BackgroundImageFix"/>
<feColorMatrix in="SourceAlpha" type="matrix" values="0 0 0 0 0 0 0 0 0 0 0 0 0 0 0 0 0 0 127 0" result="hardAlpha"/>
<feOffset dy="4"/>
<feGaussianBlur stdDeviation="2"/>
<feComposite in2="hardAlpha" operator="out"/>
<feColorMatrix type="matrix" values="0 0 0 0 0 0 0 0 0 0 0 0 0 0 0 0 0 0 0.25 0"/>
<feBlend mode="normal" in2="BackgroundImageFix" result="effect1_dropShadow_49_2486"/>
<feBlend mode="normal" in="SourceGraphic" in2="effect1_dropShadow_49_2486" result="shape"/>
</filter>
</defs>
</svg>
