<svg width="56" height="35" viewBox="0 0 56 35" fill="none" xmlns="http://www.w3.org/2000/svg">
<path d="M28 27.1C28.36 27.1 28.705 27.08 29.035 27.04C29.365 27 29.7 26.94 30.04 26.86L28.6 24.7H24.4V23.5C24.4 22.84 24.635 22.275 25.105 21.805C25.575 21.335 26.14 21.1 26.8 21.1H29.2V17.5H26.8C26.46 17.5 26.175 17.385 25.945 17.155C25.715 16.925 25.6 16.64 25.6 16.3V13.9H25.06C24.54 13.9 24.1 13.725 23.74 13.375C23.38 13.025 23.2 12.59 23.2 12.07C23.2 11.89 23.225 11.71 23.275 11.53C23.325 11.35 23.4 11.18 23.5 11.02L25.36 8.29C23.34 8.87 21.675 10 20.365 11.68C19.055 13.36 18.4 15.3 18.4 17.5H19.6V16.3C19.6 15.96 19.715 15.675 19.945 15.445C20.175 15.215 20.46 15.1 20.8 15.1H23.2C23.54 15.1 23.825 15.215 24.055 15.445C24.285 15.675 24.4 15.96 24.4 16.3V17.5C24.4 17.84 24.285 18.125 24.055 18.355C23.825 18.585 23.54 18.7 23.2 18.7V19.9C23.2 20.56 22.965 21.125 22.495 21.595C22.025 22.065 21.46 22.3 20.8 22.3H19.69C20.53 23.74 21.68 24.9 23.14 25.78C24.6 26.66 26.22 27.1 28 27.1ZM37.12 20.44C37.28 19.98 37.4 19.505 37.48 19.015C37.56 18.525 37.6 18.02 37.6 17.5C37.6 15.26 36.92 13.285 35.56 11.575C34.2 9.865 32.48 8.74 30.4 8.2V11.5C31.06 11.5 31.625 11.735 32.095 12.205C32.565 12.675 32.8 13.24 32.8 13.9V16.3C33.18 16.3 33.52 16.345 33.82 16.435C34.12 16.525 34.41 16.71 34.69 16.99L37.12 20.44ZM28 29.5C26.34 29.5 24.78 29.185 23.32 28.555C21.86 27.925 20.59 27.07 19.51 25.99C18.43 24.91 17.575 23.64 16.945 22.18C16.315 20.72 16 19.16 16 17.5C16 15.84 16.315 14.28 16.945 12.82C17.575 11.36 18.43 10.09 19.51 9.01C20.59 7.93 21.86 7.075 23.32 6.445C24.78 5.815 26.34 5.5 28 5.5C29.66 5.5 31.22 5.815 32.68 6.445C34.14 7.075 35.41 7.93 36.49 9.01C37.57 10.09 38.425 11.36 39.055 12.82C39.685 14.28 40 15.84 40 17.5C40 19.16 39.685 20.72 39.055 22.18C38.425 23.64 37.57 24.91 36.49 25.99C35.41 27.07 34.14 27.925 32.68 28.555C31.22 29.185 29.66 29.5 28 29.5Z" fill="#FAFAFA"/>
</svg>
