<svg width="236" height="97" viewBox="0 0 236 97" fill="none" xmlns="http://www.w3.org/2000/svg">
<path d="M12.4 39C11.6107 39 11.216 38.6053 11.216 37.816V18.84C11.216 18.0507 11.6107 17.656 12.4 17.656C13.1787 17.656 13.568 18.0507 13.568 18.84V36.648H22.72C23.5093 36.648 23.904 37.0373 23.904 37.816C23.904 38.6053 23.5093 39 22.72 39H12.4ZM34.939 39C32.539 39 30.7683 38.4347 29.627 37.304C28.4963 36.1627 27.931 34.392 27.931 31.992V18.84C27.931 18.456 28.0323 18.1627 28.235 17.96C28.4377 17.7573 28.731 17.656 29.115 17.656C29.499 17.656 29.787 17.7573 29.979 17.96C30.1817 18.1627 30.283 18.456 30.283 18.84V31.992C30.283 33.1653 30.427 34.0933 30.715 34.776C31.003 35.448 31.483 35.928 32.155 36.216C32.8377 36.504 33.7657 36.648 34.939 36.648H38.779C39.9417 36.648 40.859 36.504 41.531 36.216C42.2137 35.928 42.699 35.448 42.987 34.776C43.275 34.0933 43.419 33.1653 43.419 31.992V18.84C43.419 18.456 43.5203 18.1627 43.723 17.96C43.9257 17.7573 44.219 17.656 44.603 17.656C44.987 17.656 45.275 17.7573 45.467 17.96C45.6697 18.1627 45.771 18.456 45.771 18.84V31.992C45.771 34.392 45.2057 36.1627 44.075 37.304C42.9443 38.4347 41.179 39 38.779 39H34.939ZM53.2125 39C52.4232 39 52.0285 38.6053 52.0285 37.816V18.84C52.0285 18.0507 52.4232 17.656 53.2125 17.656C53.7352 17.656 54.1672 17.912 54.5085 18.424L62.2045 30.056L61.6925 30.136L69.4205 18.424C69.7405 17.912 70.2152 17.656 70.8445 17.656C71.4952 17.656 71.8205 18.0507 71.8205 18.84V37.816C71.8205 38.6053 71.4312 39 70.6525 39C69.8632 39 69.4685 38.6053 69.4685 37.816V21.192L70.1885 21.432L63.2445 31.784C62.9032 32.2853 62.4285 32.536 61.8205 32.536C61.3725 32.536 60.9778 32.2853 60.6365 31.784L53.6925 21.432L54.3805 21.64V37.816C54.3805 38.6053 53.9912 39 53.2125 39ZM79.4313 39C79.0366 39 78.7379 38.904 78.5353 38.712C78.3433 38.5093 78.2473 38.2107 78.2473 37.816V18.856C78.2473 18.4507 78.3433 18.152 78.5353 17.96C78.7379 17.768 79.0366 17.672 79.4313 17.672C79.8259 17.672 80.1193 17.768 80.3113 17.96C80.5033 18.152 80.5993 18.4507 80.5993 18.856V37.816C80.5993 38.2107 80.5033 38.5093 80.3113 38.712C80.1193 38.904 79.8259 39 79.4313 39ZM88.2125 39C87.4232 39 87.0285 38.6053 87.0285 37.816V18.84C87.0285 18.0507 87.4232 17.656 88.2125 17.656C88.6178 17.656 89.0125 17.8907 89.3965 18.36L102.485 35.208H101.909V18.84C101.909 18.0507 102.303 17.656 103.093 17.656C103.871 17.656 104.261 18.0507 104.261 18.84V37.816C104.261 38.6053 103.871 39 103.093 39C102.666 39 102.271 38.7653 101.909 38.296L88.8045 21.448H89.3805V37.816C89.3805 38.6053 88.9912 39 88.2125 39ZM109.469 38.888C108.722 38.5893 108.498 38.072 108.797 37.336L116.525 18.584C116.791 17.9653 117.229 17.656 117.837 17.656H117.917C118.525 17.688 118.941 17.9973 119.165 18.584L126.973 37.336C127.271 38.072 127.058 38.5893 126.333 38.888C125.597 39.176 125.085 38.9627 124.797 38.248L122.925 33.768H112.797L110.989 38.248C110.69 38.9733 110.183 39.1867 109.469 38.888ZM113.725 31.416H121.965L117.789 21.384L113.725 31.416ZM139.625 38.888C138.878 38.5893 138.654 38.072 138.953 37.336L146.681 18.584C146.948 17.9653 147.385 17.656 147.993 17.656H148.073C148.681 17.688 149.097 17.9973 149.321 18.584L157.129 37.336C157.428 38.072 157.214 38.5893 156.489 38.888C155.753 39.176 155.241 38.9627 154.953 38.248L153.081 33.768H142.953L141.145 38.248C140.846 38.9733 140.34 39.1867 139.625 38.888ZM143.881 31.416H152.121L147.945 21.384L143.881 31.416ZM174.021 23.144C174.811 23.144 175.205 23.5333 175.205 24.312V37.816C175.205 38.6053 174.811 39 174.021 39C173.243 39 172.853 38.6053 172.853 37.816V36.968C171.755 38.3227 170.032 39 167.685 39H166.789C164.709 39 163.173 38.504 162.181 37.512C161.189 36.5093 160.693 34.968 160.693 32.888V24.312C160.693 23.5333 161.083 23.144 161.861 23.144C162.651 23.144 163.045 23.5333 163.045 24.312V32.888C163.045 34.328 163.312 35.3147 163.845 35.848C164.389 36.3813 165.371 36.648 166.789 36.648H167.685C169.093 36.648 170.272 36.4613 171.221 36.088C172.171 35.704 172.715 35.1227 172.853 34.344V24.312C172.853 23.5333 173.243 23.144 174.021 23.144ZM187.078 39C184.998 39 183.457 38.504 182.454 37.512C181.462 36.5093 180.966 34.968 180.966 32.888V29.24C180.966 27.16 181.462 25.624 182.454 24.632C183.457 23.64 184.998 23.144 187.078 23.144H193.446V17.752C193.446 16.9733 193.841 16.584 194.63 16.584C195.409 16.584 195.798 16.9733 195.798 17.752V37.816C195.798 38.6053 195.409 39 194.63 39C193.841 39 193.446 38.6053 193.446 37.816V37.208C192.956 37.7947 192.294 38.2427 191.462 38.552C190.63 38.8507 189.574 39 188.294 39H187.078ZM187.078 36.648H188.294C189.788 36.648 191.02 36.44 191.99 36.024C192.961 35.608 193.446 34.9733 193.446 34.12V25.496H187.078C185.638 25.496 184.652 25.768 184.118 26.312C183.585 26.8453 183.318 27.8213 183.318 29.24V32.888C183.318 34.328 183.585 35.3147 184.118 35.848C184.662 36.3813 185.649 36.648 187.078 36.648ZM202.687 20.424C201.769 20.424 201.311 19.9547 201.311 19.016V18.152C201.311 17.2347 201.769 16.776 202.687 16.776H203.551C204.436 16.776 204.879 17.2347 204.879 18.152V19.016C204.879 19.9547 204.436 20.424 203.551 20.424H202.687ZM203.119 39C202.329 39 201.935 38.6053 201.935 37.816V24.312C201.935 23.5333 202.329 23.144 203.119 23.144C203.897 23.144 204.287 23.5333 204.287 24.312V37.816C204.287 38.6053 203.897 39 203.119 39ZM216.172 39C214.092 39 212.551 38.504 211.548 37.512C210.556 36.52 210.06 34.9893 210.06 32.92V29.24C210.06 27.1387 210.556 25.5973 211.548 24.616C212.551 23.624 214.092 23.1333 216.172 23.144H218.796C220.876 23.144 222.412 23.64 223.404 24.632C224.396 25.624 224.892 27.16 224.892 29.24V32.888C224.892 34.968 224.396 36.5093 223.404 37.512C222.412 38.504 220.876 39 218.796 39H216.172ZM212.412 32.92C212.412 34.3387 212.679 35.3147 213.212 35.848C213.745 36.3813 214.732 36.648 216.172 36.648H218.796C220.236 36.648 221.217 36.3813 221.74 35.848C222.273 35.3147 222.54 34.328 222.54 32.888V29.24C222.54 27.8 222.273 26.8187 221.74 26.296C221.217 25.7627 220.236 25.496 218.796 25.496H216.172C215.212 25.496 214.46 25.608 213.916 25.832C213.372 26.056 212.983 26.44 212.748 26.984C212.524 27.528 212.412 28.28 212.412 29.24V32.92Z" fill="#FAFAFA"/>
<path d="M66.7 85C66.3053 85 66.108 84.8027 66.108 84.408V74.92C66.108 74.5253 66.3053 74.328 66.7 74.328C66.9027 74.328 67.1 74.4453 67.292 74.68L73.836 83.104H73.548V74.92C73.548 74.5253 73.7453 74.328 74.14 74.328C74.5293 74.328 74.724 74.5253 74.724 74.92V84.408C74.724 84.8027 74.5293 85 74.14 85C73.9267 85 73.7293 84.8827 73.548 84.648L66.996 76.224H67.284V84.408C67.284 84.8027 67.0893 85 66.7 85ZM80.6641 85C79.6241 85 78.8535 84.752 78.3521 84.256C77.8561 83.76 77.6081 82.9947 77.6081 81.96V80.12C77.6081 79.0693 77.8561 78.2987 78.3521 77.808C78.8535 77.312 79.6241 77.0667 80.6641 77.072H81.9761C83.0161 77.072 83.7841 77.32 84.2801 77.816C84.7761 78.312 85.0241 79.08 85.0241 80.12V81.944C85.0241 82.984 84.7761 83.7547 84.2801 84.256C83.7841 84.752 83.0161 85 81.9761 85H80.6641ZM78.7841 81.96C78.7841 82.6693 78.9175 83.1573 79.1841 83.424C79.4508 83.6907 79.9441 83.824 80.6641 83.824H81.9761C82.6961 83.824 83.1868 83.6907 83.4481 83.424C83.7148 83.1573 83.8481 82.664 83.8481 81.944V80.12C83.8481 79.4 83.7148 78.9093 83.4481 78.648C83.1868 78.3813 82.6961 78.248 81.9761 78.248H80.6641C80.1841 78.248 79.8081 78.304 79.5361 78.416C79.2641 78.528 79.0695 78.72 78.9521 78.992C78.8401 79.264 78.7841 79.64 78.7841 80.12V81.96ZM88.4969 85C88.1022 85 87.9049 84.8027 87.9049 84.408V77.656C87.9049 77.2667 88.1022 77.072 88.4969 77.072C88.8862 77.072 89.0809 77.2667 89.0809 77.656V78.488C89.3849 78.024 89.7849 77.672 90.2809 77.432C90.7822 77.192 91.3635 77.072 92.0249 77.072C92.4195 77.072 92.6169 77.2667 92.6169 77.656C92.6169 78.0507 92.4195 78.248 92.0249 78.248C91.0915 78.248 90.3769 78.4347 89.8809 78.808C89.3849 79.176 89.1182 79.68 89.0809 80.32V84.408C89.0809 84.8027 88.8862 85 88.4969 85ZM96.8829 85C95.8429 85 95.0722 84.752 94.5709 84.256C94.0749 83.7547 93.8269 82.984 93.8269 81.944V80.12C93.8269 79.08 94.0749 78.312 94.5709 77.816C95.0722 77.32 95.8429 77.072 96.8829 77.072H100.067V74.376C100.067 73.9867 100.264 73.792 100.659 73.792C101.048 73.792 101.243 73.9867 101.243 74.376V84.408C101.243 84.8027 101.048 85 100.659 85C100.264 85 100.067 84.8027 100.067 84.408V84.104C99.8215 84.3973 99.4909 84.6213 99.0749 84.776C98.6589 84.9253 98.1309 85 97.4909 85H96.8829ZM96.8829 83.824H97.4909C98.2375 83.824 98.8535 83.72 99.3389 83.512C99.8242 83.304 100.067 82.9867 100.067 82.56V78.248H96.8829C96.1629 78.248 95.6695 78.384 95.4029 78.656C95.1362 78.9227 95.0029 79.4107 95.0029 80.12V81.944C95.0029 82.664 95.1362 83.1573 95.4029 83.424C95.6749 83.6907 96.1682 83.824 96.8829 83.824ZM104.687 75.712C104.228 75.712 103.999 75.4773 103.999 75.008V74.576C103.999 74.1173 104.228 73.888 104.687 73.888H105.119C105.562 73.888 105.783 74.1173 105.783 74.576V75.008C105.783 75.4773 105.562 75.712 105.119 75.712H104.687ZM104.903 85C104.508 85 104.311 84.8027 104.311 84.408V77.656C104.311 77.2667 104.508 77.072 104.903 77.072C105.292 77.072 105.487 77.2667 105.487 77.656V84.408C105.487 84.8027 105.292 85 104.903 85ZM111.43 85C110.39 85 109.619 84.752 109.118 84.256C108.622 83.7547 108.374 82.984 108.374 81.944V80.104C108.374 79.064 108.619 78.296 109.11 77.8C109.606 77.304 110.379 77.0613 111.43 77.072H112.742C113.531 77.072 114.147 77.2053 114.59 77.472C115.032 77.7387 115.31 78.1493 115.422 78.704C115.459 78.9013 115.422 79.0533 115.31 79.16C115.203 79.2667 115.048 79.32 114.846 79.32C114.664 79.32 114.531 79.2747 114.446 79.184C114.36 79.088 114.286 78.9547 114.222 78.784C114.147 78.5867 113.995 78.448 113.766 78.368C113.542 78.288 113.2 78.248 112.742 78.248H111.43C110.715 78.2373 110.222 78.3653 109.95 78.632C109.683 78.8933 109.55 79.384 109.55 80.104V81.944C109.55 82.664 109.683 83.1573 109.95 83.424C110.222 83.6907 110.715 83.824 111.43 83.824H112.742C113.2 83.824 113.542 83.784 113.766 83.704C113.995 83.624 114.147 83.4827 114.222 83.28C114.286 83.104 114.36 82.9707 114.446 82.88C114.531 82.7893 114.667 82.744 114.854 82.744C115.051 82.744 115.203 82.8 115.31 82.912C115.422 83.0187 115.459 83.168 115.422 83.36C115.31 83.9147 115.032 84.328 114.59 84.6C114.147 84.8667 113.531 85 112.742 85H111.43ZM124.666 84.992C123.994 84.992 123.469 84.8533 123.09 84.576C122.712 84.2933 122.474 83.8693 122.378 83.304C122.346 83.112 122.384 82.96 122.49 82.848C122.602 82.736 122.757 82.68 122.954 82.68C123.141 82.68 123.277 82.728 123.362 82.824C123.453 82.92 123.525 83.064 123.578 83.256C123.637 83.4747 123.749 83.624 123.914 83.704C124.08 83.7787 124.33 83.816 124.666 83.816H127.29C127.733 83.816 128.032 83.7413 128.186 83.592C128.346 83.4373 128.426 83.1333 128.426 82.68C128.426 82.2267 128.346 81.9227 128.186 81.768C128.032 81.6133 127.733 81.536 127.29 81.536H124.706C123.965 81.536 123.408 81.352 123.034 80.984C122.661 80.6107 122.474 80.0533 122.474 79.312C122.474 78.5547 122.656 77.992 123.018 77.624C123.386 77.2507 123.949 77.064 124.706 77.064H127.21C128.448 77.064 129.165 77.5947 129.362 78.656C129.394 78.8533 129.354 79.0053 129.242 79.112C129.136 79.2187 128.984 79.272 128.786 79.272C128.605 79.272 128.469 79.224 128.378 79.128C128.288 79.032 128.218 78.896 128.17 78.72C128.117 78.5333 128.016 78.408 127.866 78.344C127.722 78.2747 127.504 78.24 127.21 78.24H124.706C124.28 78.24 123.997 78.3093 123.858 78.448C123.72 78.5867 123.65 78.8747 123.65 79.312C123.65 79.7173 123.722 79.9947 123.866 80.144C124.016 80.288 124.296 80.36 124.706 80.36H127.29C128.069 80.36 128.648 80.552 129.026 80.936C129.41 81.32 129.602 81.9013 129.602 82.68C129.602 83.4587 129.41 84.04 129.026 84.424C128.648 84.8027 128.069 84.992 127.29 84.992H124.666ZM135.07 85C134.03 85 133.26 84.752 132.758 84.256C132.262 83.76 132.014 82.9947 132.014 81.96V80.12C132.014 79.0693 132.262 78.2987 132.758 77.808C133.26 77.312 134.03 77.0667 135.07 77.072H136.382C137.422 77.072 138.19 77.32 138.686 77.816C139.182 78.312 139.43 79.08 139.43 80.12V81.944C139.43 82.984 139.182 83.7547 138.686 84.256C138.19 84.752 137.422 85 136.382 85H135.07ZM133.19 81.96C133.19 82.6693 133.324 83.1573 133.59 83.424C133.857 83.6907 134.35 83.824 135.07 83.824H136.382C137.102 83.824 137.593 83.6907 137.854 83.424C138.121 83.1573 138.254 82.664 138.254 81.944V80.12C138.254 79.4 138.121 78.9093 137.854 78.648C137.593 78.3813 137.102 78.248 136.382 78.248H135.07C134.59 78.248 134.214 78.304 133.942 78.416C133.67 78.528 133.476 78.72 133.358 78.992C133.246 79.264 133.19 79.64 133.19 80.12V81.96ZM148.823 77.072C149.218 77.072 149.415 77.2667 149.415 77.656V84.408C149.415 84.8027 149.218 85 148.823 85C148.434 85 148.239 84.8027 148.239 84.408V83.984C147.69 84.6613 146.828 85 145.655 85H145.207C144.167 85 143.399 84.752 142.903 84.256C142.407 83.7547 142.159 82.984 142.159 81.944V77.656C142.159 77.2667 142.354 77.072 142.743 77.072C143.138 77.072 143.335 77.2667 143.335 77.656V81.944C143.335 82.664 143.468 83.1573 143.735 83.424C144.007 83.6907 144.498 83.824 145.207 83.824H145.655C146.359 83.824 146.948 83.7307 147.423 83.544C147.898 83.352 148.17 83.0613 148.239 82.672V77.656C148.239 77.2667 148.434 77.072 148.823 77.072ZM153.216 85C152.821 85 152.624 84.8027 152.624 84.408V77.656C152.624 77.2667 152.821 77.072 153.216 77.072C153.605 77.072 153.8 77.2667 153.8 77.656V78.088C154.344 77.4107 155.205 77.072 156.384 77.072H156.832C157.872 77.072 158.64 77.32 159.136 77.816C159.632 78.312 159.88 79.08 159.88 80.12V84.408C159.88 84.8027 159.685 85 159.296 85C158.901 85 158.704 84.8027 158.704 84.408V80.12C158.704 79.4 158.568 78.9093 158.296 78.648C158.029 78.3813 157.541 78.248 156.832 78.248H156.384C155.68 78.248 155.09 78.3413 154.616 78.528C154.141 78.7093 153.869 78.9973 153.8 79.392V84.408C153.8 84.8027 153.605 85 153.216 85ZM165.664 85C164.624 85 163.853 84.752 163.352 84.256C162.856 83.7547 162.608 82.984 162.608 81.944V80.12C162.608 79.08 162.856 78.312 163.352 77.816C163.853 77.32 164.624 77.072 165.664 77.072H168.848V74.376C168.848 73.9867 169.045 73.792 169.44 73.792C169.829 73.792 170.024 73.9867 170.024 74.376V84.408C170.024 84.8027 169.829 85 169.44 85C169.045 85 168.848 84.8027 168.848 84.408V84.104C168.603 84.3973 168.272 84.6213 167.856 84.776C167.44 84.9253 166.912 85 166.272 85H165.664ZM165.664 83.824H166.272C167.019 83.824 167.635 83.72 168.12 83.512C168.605 83.304 168.848 82.9867 168.848 82.56V78.248H165.664C164.944 78.248 164.451 78.384 164.184 78.656C163.917 78.9227 163.784 79.4107 163.784 80.12V81.944C163.784 82.664 163.917 83.1573 164.184 83.424C164.456 83.6907 164.949 83.824 165.664 83.824Z" fill="#FAFAFA"/>
</svg>
