<svg width="236" height="97" viewBox="0 0 236 97" fill="none" xmlns="http://www.w3.org/2000/svg">
<g filter="url(#filter0_d_151_893)">
<path d="M12.4 39C11.6107 39 11.216 38.6053 11.216 37.816V18.84C11.216 18.0507 11.6107 17.656 12.4 17.656C13.1787 17.656 13.568 18.0507 13.568 18.84V36.648H22.72C23.5093 36.648 23.904 37.0373 23.904 37.816C23.904 38.6053 23.5093 39 22.72 39H12.4ZM34.939 39C32.539 39 30.7683 38.4347 29.627 37.304C28.4963 36.1627 27.931 34.392 27.931 31.992V18.84C27.931 18.456 28.0323 18.1627 28.235 17.96C28.4377 17.7573 28.731 17.656 29.115 17.656C29.499 17.656 29.787 17.7573 29.979 17.96C30.1817 18.1627 30.283 18.456 30.283 18.84V31.992C30.283 33.1653 30.427 34.0933 30.715 34.776C31.003 35.448 31.483 35.928 32.155 36.216C32.8377 36.504 33.7657 36.648 34.939 36.648H38.779C39.9417 36.648 40.859 36.504 41.531 36.216C42.2137 35.928 42.699 35.448 42.987 34.776C43.275 34.0933 43.419 33.1653 43.419 31.992V18.84C43.419 18.456 43.5203 18.1627 43.723 17.96C43.9257 17.7573 44.219 17.656 44.603 17.656C44.987 17.656 45.275 17.7573 45.467 17.96C45.6697 18.1627 45.771 18.456 45.771 18.84V31.992C45.771 34.392 45.2057 36.1627 44.075 37.304C42.9443 38.4347 41.179 39 38.779 39H34.939ZM53.2125 39C52.4232 39 52.0285 38.6053 52.0285 37.816V18.84C52.0285 18.0507 52.4232 17.656 53.2125 17.656C53.7352 17.656 54.1672 17.912 54.5085 18.424L62.2045 30.056L61.6925 30.136L69.4205 18.424C69.7405 17.912 70.2152 17.656 70.8445 17.656C71.4952 17.656 71.8205 18.0507 71.8205 18.84V37.816C71.8205 38.6053 71.4312 39 70.6525 39C69.8632 39 69.4685 38.6053 69.4685 37.816V21.192L70.1885 21.432L63.2445 31.784C62.9032 32.2853 62.4285 32.536 61.8205 32.536C61.3725 32.536 60.9778 32.2853 60.6365 31.784L53.6925 21.432L54.3805 21.64V37.816C54.3805 38.6053 53.9912 39 53.2125 39ZM79.4313 39C79.0366 39 78.7379 38.904 78.5353 38.712C78.3433 38.5093 78.2473 38.2107 78.2473 37.816V18.856C78.2473 18.4507 78.3433 18.152 78.5353 17.96C78.7379 17.768 79.0366 17.672 79.4313 17.672C79.8259 17.672 80.1193 17.768 80.3113 17.96C80.5033 18.152 80.5993 18.4507 80.5993 18.856V37.816C80.5993 38.2107 80.5033 38.5093 80.3113 38.712C80.1193 38.904 79.8259 39 79.4313 39ZM88.2125 39C87.4232 39 87.0285 38.6053 87.0285 37.816V18.84C87.0285 18.0507 87.4232 17.656 88.2125 17.656C88.6178 17.656 89.0125 17.8907 89.3965 18.36L102.485 35.208H101.909V18.84C101.909 18.0507 102.303 17.656 103.093 17.656C103.871 17.656 104.261 18.0507 104.261 18.84V37.816C104.261 38.6053 103.871 39 103.093 39C102.666 39 102.271 38.7653 101.909 38.296L88.8045 21.448H89.3805V37.816C89.3805 38.6053 88.9912 39 88.2125 39ZM109.469 38.888C108.722 38.5893 108.498 38.072 108.797 37.336L116.525 18.584C116.791 17.9653 117.229 17.656 117.837 17.656H117.917C118.525 17.688 118.941 17.9973 119.165 18.584L126.973 37.336C127.271 38.072 127.058 38.5893 126.333 38.888C125.597 39.176 125.085 38.9627 124.797 38.248L122.925 33.768H112.797L110.989 38.248C110.69 38.9733 110.183 39.1867 109.469 38.888ZM113.725 31.416H121.965L117.789 21.384L113.725 31.416ZM139.625 38.888C138.878 38.5893 138.654 38.072 138.953 37.336L146.681 18.584C146.948 17.9653 147.385 17.656 147.993 17.656H148.073C148.681 17.688 149.097 17.9973 149.321 18.584L157.129 37.336C157.428 38.072 157.214 38.5893 156.489 38.888C155.753 39.176 155.241 38.9627 154.953 38.248L153.081 33.768H142.953L141.145 38.248C140.846 38.9733 140.34 39.1867 139.625 38.888ZM143.881 31.416H152.121L147.945 21.384L143.881 31.416ZM174.021 23.144C174.811 23.144 175.205 23.5333 175.205 24.312V37.816C175.205 38.6053 174.811 39 174.021 39C173.243 39 172.853 38.6053 172.853 37.816V36.968C171.755 38.3227 170.032 39 167.685 39H166.789C164.709 39 163.173 38.504 162.181 37.512C161.189 36.5093 160.693 34.968 160.693 32.888V24.312C160.693 23.5333 161.083 23.144 161.861 23.144C162.651 23.144 163.045 23.5333 163.045 24.312V32.888C163.045 34.328 163.312 35.3147 163.845 35.848C164.389 36.3813 165.371 36.648 166.789 36.648H167.685C169.093 36.648 170.272 36.4613 171.221 36.088C172.171 35.704 172.715 35.1227 172.853 34.344V24.312C172.853 23.5333 173.243 23.144 174.021 23.144ZM187.078 39C184.998 39 183.457 38.504 182.454 37.512C181.462 36.5093 180.966 34.968 180.966 32.888V29.24C180.966 27.16 181.462 25.624 182.454 24.632C183.457 23.64 184.998 23.144 187.078 23.144H193.446V17.752C193.446 16.9733 193.841 16.584 194.63 16.584C195.409 16.584 195.798 16.9733 195.798 17.752V37.816C195.798 38.6053 195.409 39 194.63 39C193.841 39 193.446 38.6053 193.446 37.816V37.208C192.956 37.7947 192.294 38.2427 191.462 38.552C190.63 38.8507 189.574 39 188.294 39H187.078ZM187.078 36.648H188.294C189.788 36.648 191.02 36.44 191.99 36.024C192.961 35.608 193.446 34.9733 193.446 34.12V25.496H187.078C185.638 25.496 184.652 25.768 184.118 26.312C183.585 26.8453 183.318 27.8213 183.318 29.24V32.888C183.318 34.328 183.585 35.3147 184.118 35.848C184.662 36.3813 185.649 36.648 187.078 36.648ZM202.687 20.424C201.769 20.424 201.311 19.9547 201.311 19.016V18.152C201.311 17.2347 201.769 16.776 202.687 16.776H203.551C204.436 16.776 204.879 17.2347 204.879 18.152V19.016C204.879 19.9547 204.436 20.424 203.551 20.424H202.687ZM203.119 39C202.329 39 201.935 38.6053 201.935 37.816V24.312C201.935 23.5333 202.329 23.144 203.119 23.144C203.897 23.144 204.287 23.5333 204.287 24.312V37.816C204.287 38.6053 203.897 39 203.119 39ZM216.172 39C214.092 39 212.551 38.504 211.548 37.512C210.556 36.52 210.06 34.9893 210.06 32.92V29.24C210.06 27.1387 210.556 25.5973 211.548 24.616C212.551 23.624 214.092 23.1333 216.172 23.144H218.796C220.876 23.144 222.412 23.64 223.404 24.632C224.396 25.624 224.892 27.16 224.892 29.24V32.888C224.892 34.968 224.396 36.5093 223.404 37.512C222.412 38.504 220.876 39 218.796 39H216.172ZM212.412 32.92C212.412 34.3387 212.679 35.3147 213.212 35.848C213.745 36.3813 214.732 36.648 216.172 36.648H218.796C220.236 36.648 221.217 36.3813 221.74 35.848C222.273 35.3147 222.54 34.328 222.54 32.888V29.24C222.54 27.8 222.273 26.8187 221.74 26.296C221.217 25.7627 220.236 25.496 218.796 25.496H216.172C215.212 25.496 214.46 25.608 213.916 25.832C213.372 26.056 212.983 26.44 212.748 26.984C212.524 27.528 212.412 28.28 212.412 29.24V32.92Z" fill="#E6D8BD"/>
</g>
<g filter="url(#filter1_d_151_893)">
<path d="M66.7078 85C66.3131 85 66.1158 84.8027 66.1158 84.408V74.92C66.1158 74.5253 66.3131 74.328 66.7078 74.328C66.9105 74.328 67.1078 74.4453 67.2998 74.68L73.8438 83.104H73.5558V74.92C73.5558 74.5253 73.7531 74.328 74.1478 74.328C74.5371 74.328 74.7318 74.5253 74.7318 74.92V84.408C74.7318 84.8027 74.5371 85 74.1478 85C73.9345 85 73.7371 84.8827 73.5558 84.648L67.0038 76.224H67.2918V84.408C67.2918 84.8027 67.0971 85 66.7078 85ZM80.6719 85C79.6319 85 78.8613 84.752 78.3599 84.256C77.8639 83.76 77.6159 82.9947 77.6159 81.96V80.12C77.6159 79.0693 77.8639 78.2987 78.3599 77.808C78.8613 77.312 79.6319 77.0667 80.6719 77.072H81.9839C83.0239 77.072 83.7919 77.32 84.2879 77.816C84.7839 78.312 85.0319 79.08 85.0319 80.12V81.944C85.0319 82.984 84.7839 83.7547 84.2879 84.256C83.7919 84.752 83.0239 85 81.9839 85H80.6719ZM78.7919 81.96C78.7919 82.6693 78.9253 83.1573 79.1919 83.424C79.4586 83.6907 79.9519 83.824 80.6719 83.824H81.9839C82.7039 83.824 83.1946 83.6907 83.4559 83.424C83.7226 83.1573 83.8559 82.664 83.8559 81.944V80.12C83.8559 79.4 83.7226 78.9093 83.4559 78.648C83.1946 78.3813 82.7039 78.248 81.9839 78.248H80.6719C80.1919 78.248 79.8159 78.304 79.5439 78.416C79.2719 78.528 79.0773 78.72 78.9599 78.992C78.8479 79.264 78.7919 79.64 78.7919 80.12V81.96ZM88.5047 85C88.11 85 87.9127 84.8027 87.9127 84.408V77.656C87.9127 77.2667 88.11 77.072 88.5047 77.072C88.894 77.072 89.0887 77.2667 89.0887 77.656V78.488C89.3927 78.024 89.7927 77.672 90.2887 77.432C90.79 77.192 91.3714 77.072 92.0327 77.072C92.4274 77.072 92.6247 77.2667 92.6247 77.656C92.6247 78.0507 92.4274 78.248 92.0327 78.248C91.0994 78.248 90.3847 78.4347 89.8887 78.808C89.3927 79.176 89.126 79.68 89.0887 80.32V84.408C89.0887 84.8027 88.894 85 88.5047 85ZM96.8907 85C95.8507 85 95.08 84.752 94.5787 84.256C94.0827 83.7547 93.8347 82.984 93.8347 81.944V80.12C93.8347 79.08 94.0827 78.312 94.5787 77.816C95.08 77.32 95.8507 77.072 96.8907 77.072H100.075V74.376C100.075 73.9867 100.272 73.792 100.667 73.792C101.056 73.792 101.251 73.9867 101.251 74.376V84.408C101.251 84.8027 101.056 85 100.667 85C100.272 85 100.075 84.8027 100.075 84.408V84.104C99.8294 84.3973 99.4987 84.6213 99.0827 84.776C98.6667 84.9253 98.1387 85 97.4987 85H96.8907ZM96.8907 83.824H97.4987C98.2454 83.824 98.8614 83.72 99.3467 83.512C99.832 83.304 100.075 82.9867 100.075 82.56V78.248H96.8907C96.1707 78.248 95.6774 78.384 95.4107 78.656C95.144 78.9227 95.0107 79.4107 95.0107 80.12V81.944C95.0107 82.664 95.144 83.1573 95.4107 83.424C95.6827 83.6907 96.176 83.824 96.8907 83.824ZM104.695 75.712C104.236 75.712 104.007 75.4773 104.007 75.008V74.576C104.007 74.1173 104.236 73.888 104.695 73.888H105.127C105.57 73.888 105.791 74.1173 105.791 74.576V75.008C105.791 75.4773 105.57 75.712 105.127 75.712H104.695ZM104.911 85C104.516 85 104.319 84.8027 104.319 84.408V77.656C104.319 77.2667 104.516 77.072 104.911 77.072C105.3 77.072 105.495 77.2667 105.495 77.656V84.408C105.495 84.8027 105.3 85 104.911 85ZM111.438 85C110.398 85 109.627 84.752 109.126 84.256C108.63 83.7547 108.382 82.984 108.382 81.944V80.104C108.382 79.064 108.627 78.296 109.118 77.8C109.614 77.304 110.387 77.0613 111.438 77.072H112.75C113.539 77.072 114.155 77.2053 114.598 77.472C115.04 77.7387 115.318 78.1493 115.43 78.704C115.467 78.9013 115.43 79.0533 115.318 79.16C115.211 79.2667 115.056 79.32 114.854 79.32C114.672 79.32 114.539 79.2747 114.454 79.184C114.368 79.088 114.294 78.9547 114.23 78.784C114.155 78.5867 114.003 78.448 113.774 78.368C113.55 78.288 113.208 78.248 112.75 78.248H111.438C110.723 78.2373 110.23 78.3653 109.958 78.632C109.691 78.8933 109.558 79.384 109.558 80.104V81.944C109.558 82.664 109.691 83.1573 109.958 83.424C110.23 83.6907 110.723 83.824 111.438 83.824H112.75C113.208 83.824 113.55 83.784 113.774 83.704C114.003 83.624 114.155 83.4827 114.23 83.28C114.294 83.104 114.368 82.9707 114.454 82.88C114.539 82.7893 114.675 82.744 114.862 82.744C115.059 82.744 115.211 82.8 115.318 82.912C115.43 83.0187 115.467 83.168 115.43 83.36C115.318 83.9147 115.04 84.328 114.598 84.6C114.155 84.8667 113.539 85 112.75 85H111.438ZM124.674 84.992C124.002 84.992 123.477 84.8533 123.098 84.576C122.72 84.2933 122.482 83.8693 122.386 83.304C122.354 83.112 122.392 82.96 122.498 82.848C122.61 82.736 122.765 82.68 122.962 82.68C123.149 82.68 123.285 82.728 123.37 82.824C123.461 82.92 123.533 83.064 123.586 83.256C123.645 83.4747 123.757 83.624 123.922 83.704C124.088 83.7787 124.338 83.816 124.674 83.816H127.298C127.741 83.816 128.04 83.7413 128.194 83.592C128.354 83.4373 128.434 83.1333 128.434 82.68C128.434 82.2267 128.354 81.9227 128.194 81.768C128.04 81.6133 127.741 81.536 127.298 81.536H124.714C123.973 81.536 123.416 81.352 123.042 80.984C122.669 80.6107 122.482 80.0533 122.482 79.312C122.482 78.5547 122.664 77.992 123.026 77.624C123.394 77.2507 123.957 77.064 124.714 77.064H127.218C128.456 77.064 129.173 77.5947 129.37 78.656C129.402 78.8533 129.362 79.0053 129.25 79.112C129.144 79.2187 128.992 79.272 128.794 79.272C128.613 79.272 128.477 79.224 128.386 79.128C128.296 79.032 128.226 78.896 128.178 78.72C128.125 78.5333 128.024 78.408 127.874 78.344C127.73 78.2747 127.512 78.24 127.218 78.24H124.714C124.288 78.24 124.005 78.3093 123.866 78.448C123.728 78.5867 123.658 78.8747 123.658 79.312C123.658 79.7173 123.73 79.9947 123.874 80.144C124.024 80.288 124.304 80.36 124.714 80.36H127.298C128.077 80.36 128.656 80.552 129.034 80.936C129.418 81.32 129.61 81.9013 129.61 82.68C129.61 83.4587 129.418 84.04 129.034 84.424C128.656 84.8027 128.077 84.992 127.298 84.992H124.674ZM135.078 85C134.038 85 133.268 84.752 132.766 84.256C132.27 83.76 132.022 82.9947 132.022 81.96V80.12C132.022 79.0693 132.27 78.2987 132.766 77.808C133.268 77.312 134.038 77.0667 135.078 77.072H136.39C137.43 77.072 138.198 77.32 138.694 77.816C139.19 78.312 139.438 79.08 139.438 80.12V81.944C139.438 82.984 139.19 83.7547 138.694 84.256C138.198 84.752 137.43 85 136.39 85H135.078ZM133.198 81.96C133.198 82.6693 133.332 83.1573 133.598 83.424C133.865 83.6907 134.358 83.824 135.078 83.824H136.39C137.11 83.824 137.601 83.6907 137.862 83.424C138.129 83.1573 138.262 82.664 138.262 81.944V80.12C138.262 79.4 138.129 78.9093 137.862 78.648C137.601 78.3813 137.11 78.248 136.39 78.248H135.078C134.598 78.248 134.222 78.304 133.95 78.416C133.678 78.528 133.484 78.72 133.366 78.992C133.254 79.264 133.198 79.64 133.198 80.12V81.96ZM148.831 77.072C149.226 77.072 149.423 77.2667 149.423 77.656V84.408C149.423 84.8027 149.226 85 148.831 85C148.442 85 148.247 84.8027 148.247 84.408V83.984C147.698 84.6613 146.836 85 145.663 85H145.215C144.175 85 143.407 84.752 142.911 84.256C142.415 83.7547 142.167 82.984 142.167 81.944V77.656C142.167 77.2667 142.362 77.072 142.751 77.072C143.146 77.072 143.343 77.2667 143.343 77.656V81.944C143.343 82.664 143.476 83.1573 143.743 83.424C144.015 83.6907 144.506 83.824 145.215 83.824H145.663C146.367 83.824 146.956 83.7307 147.431 83.544C147.906 83.352 148.178 83.0613 148.247 82.672V77.656C148.247 77.2667 148.442 77.072 148.831 77.072ZM153.223 85C152.829 85 152.631 84.8027 152.631 84.408V77.656C152.631 77.2667 152.829 77.072 153.223 77.072C153.613 77.072 153.807 77.2667 153.807 77.656V78.088C154.351 77.4107 155.213 77.072 156.391 77.072H156.839C157.879 77.072 158.647 77.32 159.143 77.816C159.639 78.312 159.887 79.08 159.887 80.12V84.408C159.887 84.8027 159.693 85 159.303 85C158.909 85 158.711 84.8027 158.711 84.408V80.12C158.711 79.4 158.575 78.9093 158.303 78.648C158.037 78.3813 157.549 78.248 156.839 78.248H156.391C155.687 78.248 155.098 78.3413 154.623 78.528C154.149 78.7093 153.877 78.9973 153.807 79.392V84.408C153.807 84.8027 153.613 85 153.223 85ZM165.672 85C164.632 85 163.861 84.752 163.36 84.256C162.864 83.7547 162.616 82.984 162.616 81.944V80.12C162.616 79.08 162.864 78.312 163.36 77.816C163.861 77.32 164.632 77.072 165.672 77.072H168.856V74.376C168.856 73.9867 169.053 73.792 169.448 73.792C169.837 73.792 170.032 73.9867 170.032 74.376V84.408C170.032 84.8027 169.837 85 169.448 85C169.053 85 168.856 84.8027 168.856 84.408V84.104C168.611 84.3973 168.28 84.6213 167.864 84.776C167.448 84.9253 166.92 85 166.28 85H165.672ZM165.672 83.824H166.28C167.027 83.824 167.643 83.72 168.128 83.512C168.613 83.304 168.856 82.9867 168.856 82.56V78.248H165.672C164.952 78.248 164.459 78.384 164.192 78.656C163.925 78.9227 163.792 79.4107 163.792 80.12V81.944C163.792 82.664 163.925 83.1573 164.192 83.424C164.464 83.6907 164.957 83.824 165.672 83.824Z" fill="#E6D8BD"/>
</g>
<defs>
<filter id="filter0_d_151_893" x="-4" y="0" width="244" height="62" filterUnits="userSpaceOnUse" color-interpolation-filters="sRGB">
<feFlood flood-opacity="0" result="BackgroundImageFix"/>
<feColorMatrix in="SourceAlpha" type="matrix" values="0 0 0 0 0 0 0 0 0 0 0 0 0 0 0 0 0 0 127 0" result="hardAlpha"/>
<feOffset dy="4"/>
<feGaussianBlur stdDeviation="2"/>
<feComposite in2="hardAlpha" operator="out"/>
<feColorMatrix type="matrix" values="0 0 0 0 0 0 0 0 0 0 0 0 0 0 0 0 0 0 0.25 0"/>
<feBlend mode="normal" in2="BackgroundImageFix" result="effect1_dropShadow_151_893"/>
<feBlend mode="normal" in="SourceGraphic" in2="effect1_dropShadow_151_893" result="shape"/>
</filter>
<filter id="filter1_d_151_893" x="-4" y="62" width="244" height="43" filterUnits="userSpaceOnUse" color-interpolation-filters="sRGB">
<feFlood flood-opacity="0" result="BackgroundImageFix"/>
<feColorMatrix in="SourceAlpha" type="matrix" values="0 0 0 0 0 0 0 0 0 0 0 0 0 0 0 0 0 0 127 0" result="hardAlpha"/>
<feOffset dy="4"/>
<feGaussianBlur stdDeviation="2"/>
<feComposite in2="hardAlpha" operator="out"/>
<feColorMatrix type="matrix" values="0 0 0 0 0 0 0 0 0 0 0 0 0 0 0 0 0 0 0.25 0"/>
<feBlend mode="normal" in2="BackgroundImageFix" result="effect1_dropShadow_151_893"/>
<feBlend mode="normal" in="SourceGraphic" in2="effect1_dropShadow_151_893" result="shape"/>
</filter>
</defs>
</svg>
