<svg width="56" height="35" viewBox="0 0 56 35" fill="none" xmlns="http://www.w3.org/2000/svg">
<path d="M28 17C26.35 17 24.9375 16.4125 23.7625 15.2375C22.5875 14.0625 22 12.65 22 11C22 9.35 22.5875 7.9375 23.7625 6.7625C24.9375 5.5875 26.35 5 28 5C29.65 5 31.0625 5.5875 32.2375 6.7625C33.4125 7.9375 34 9.35 34 11C34 12.65 33.4125 14.0625 32.2375 15.2375C31.0625 16.4125 29.65 17 28 17ZM16 29V24.8C16 23.95 16.2188 23.1688 16.6562 22.4563C17.0938 21.7438 17.675 21.2 18.4 20.825C19.95 20.05 21.525 19.4688 23.125 19.0813C24.725 18.6938 26.35 18.5 28 18.5C29.65 18.5 31.275 18.6938 32.875 19.0813C34.475 19.4688 36.05 20.05 37.6 20.825C38.325 21.2 38.9062 21.7438 39.3438 22.4563C39.7813 23.1688 40 23.95 40 24.8V29H16ZM19 26H37V24.8C37 24.525 36.9313 24.275 36.7938 24.05C36.6562 23.825 36.475 23.65 36.25 23.525C34.9 22.85 33.5375 22.3438 32.1625 22.0063C30.7875 21.6688 29.4 21.5 28 21.5C26.6 21.5 25.2125 21.6688 23.8375 22.0063C22.4625 22.3438 21.1 22.85 19.75 23.525C19.525 23.65 19.3438 23.825 19.2063 24.05C19.0688 24.275 19 24.525 19 24.8V26ZM28 14C28.825 14 29.5313 13.7063 30.1188 13.1188C30.7063 12.5313 31 11.825 31 11C31 10.175 30.7063 9.46875 30.1188 8.88125C29.5313 8.29375 28.825 8 28 8C27.175 8 26.4688 8.29375 25.8813 8.88125C25.2938 9.46875 25 10.175 25 11C25 11.825 25.2938 12.5313 25.8813 13.1188C26.4688 13.7063 27.175 14 28 14Z" fill="#FAFAFA"/>
</svg>
