<svg width="32" height="32" viewBox="0 0 32 32" fill="none" xmlns="http://www.w3.org/2000/svg">
<g filter="url(#filter0_d_49_2489)">
<path d="M4 24V18C4 17.15 4.21364 16.4375 4.64091 15.8625C5.06818 15.2875 5.58182 15 6.18182 15H9.75455C10.1182 15 10.4636 15.125 10.7909 15.375C11.1182 15.625 11.3818 15.9625 11.5818 16.3875C12.1091 17.3625 12.7591 18.125 13.5318 18.675C14.3045 19.225 15.1273 19.5 16 19.5C16.8909 19.5 17.7227 19.225 18.4955 18.675C19.2682 18.125 19.9091 17.3625 20.4182 16.3875C20.6545 15.9625 20.9318 15.625 21.25 15.375C21.5682 15.125 21.9 15 22.2455 15H25.8182C26.4364 15 26.9545 15.2875 27.3727 15.8625C27.7909 16.4375 28 17.15 28 18V24H20.3636V20.5875C19.7273 21.2125 19.0409 21.6875 18.3045 22.0125C17.5682 22.3375 16.8 22.5 16 22.5C15.2182 22.5 14.4545 22.3313 13.7091 21.9938C12.9636 21.6562 12.2727 21.175 11.6364 20.55V24H4ZM16 18C15.3091 18 14.6545 17.7812 14.0364 17.3438C13.4182 16.9062 12.9 16.3 12.4818 15.525C12.1727 14.9 11.7864 14.4063 11.3227 14.0438C10.8591 13.6813 10.3545 13.5 9.80909 13.5C10.2091 12.575 11.0545 11.8438 12.3455 11.3063C13.6364 10.7688 14.8545 10.5 16 10.5C17.1455 10.5 18.3636 10.7688 19.6545 11.3063C20.9455 11.8438 21.7909 12.575 22.1909 13.5C21.6636 13.5 21.1636 13.6813 20.6909 14.0438C20.2182 14.4063 19.8273 14.9 19.5182 15.525C19.1182 16.325 18.6091 16.9375 17.9909 17.3625C17.3727 17.7875 16.7091 18 16 18ZM7.27273 13.5C6.36364 13.5 5.59091 13.0625 4.95455 12.1875C4.31818 11.3125 4 10.25 4 9C4 7.725 4.31818 6.65625 4.95455 5.79375C5.59091 4.93125 6.36364 4.5 7.27273 4.5C8.2 4.5 8.97727 4.93125 9.60455 5.79375C10.2318 6.65625 10.5455 7.725 10.5455 9C10.5455 10.25 10.2318 11.3125 9.60455 12.1875C8.97727 13.0625 8.2 13.5 7.27273 13.5ZM24.7273 13.5C23.8182 13.5 23.0455 13.0625 22.4091 12.1875C21.7727 11.3125 21.4545 10.25 21.4545 9C21.4545 7.725 21.7727 6.65625 22.4091 5.79375C23.0455 4.93125 23.8182 4.5 24.7273 4.5C25.6545 4.5 26.4318 4.93125 27.0591 5.79375C27.6864 6.65625 28 7.725 28 9C28 10.25 27.6864 11.3125 27.0591 12.1875C26.4318 13.0625 25.6545 13.5 24.7273 13.5ZM16 9C15.0909 9 14.3182 8.5625 13.6818 7.6875C13.0455 6.8125 12.7273 5.75 12.7273 4.5C12.7273 3.225 13.0455 2.15625 13.6818 1.29375C14.3182 0.43125 15.0909 0 16 0C16.9273 0 17.7045 0.43125 18.3318 1.29375C18.9591 2.15625 19.2727 3.225 19.2727 4.5C19.2727 5.75 18.9591 6.8125 18.3318 7.6875C17.7045 8.5625 16.9273 9 16 9Z" fill="#65371F"/>
</g>
<defs>
<filter id="filter0_d_49_2489" x="0" y="0" width="32" height="32" filterUnits="userSpaceOnUse" color-interpolation-filters="sRGB">
<feFlood flood-opacity="0" result="BackgroundImageFix"/>
<feColorMatrix in="SourceAlpha" type="matrix" values="0 0 0 0 0 0 0 0 0 0 0 0 0 0 0 0 0 0 127 0" result="hardAlpha"/>
<feOffset dy="4"/>
<feGaussianBlur stdDeviation="2"/>
<feComposite in2="hardAlpha" operator="out"/>
<feColorMatrix type="matrix" values="0 0 0 0 0 0 0 0 0 0 0 0 0 0 0 0 0 0 0.25 0"/>
<feBlend mode="normal" in2="BackgroundImageFix" result="effect1_dropShadow_49_2489"/>
<feBlend mode="normal" in="SourceGraphic" in2="effect1_dropShadow_49_2489" result="shape"/>
</filter>
</defs>
</svg>
