<svg width="56" height="37" viewBox="0 0 56 37" fill="none" xmlns="http://www.w3.org/2000/svg">
<g filter="url(#filter0_d_183_4622)">
<path d="M38.1333 29L29.7333 20.6C29.0667 21.1333 28.3 21.5556 27.4333 21.8667C26.5667 22.1778 25.6444 22.3333 24.6667 22.3333C22.2444 22.3333 20.1944 21.4944 18.5167 19.8167C16.8389 18.1389 16 16.0889 16 13.6667C16 11.2444 16.8389 9.19444 18.5167 7.51667C20.1944 5.83889 22.2444 5 24.6667 5C27.0889 5 29.1389 5.83889 30.8167 7.51667C32.4944 9.19444 33.3333 11.2444 33.3333 13.6667C33.3333 14.6444 33.1778 15.5667 32.8667 16.4333C32.5556 17.3 32.1333 18.0667 31.6 18.7333L40 27.1333L38.1333 29ZM24.6667 19.6667C26.3333 19.6667 27.75 19.0833 28.9167 17.9167C30.0833 16.75 30.6667 15.3333 30.6667 13.6667C30.6667 12 30.0833 10.5833 28.9167 9.41667C27.75 8.25 26.3333 7.66667 24.6667 7.66667C23 7.66667 21.5833 8.25 20.4167 9.41667C19.25 10.5833 18.6667 12 18.6667 13.6667C18.6667 15.3333 19.25 16.75 20.4167 17.9167C21.5833 19.0833 23 19.6667 24.6667 19.6667Z" fill="#65371F"/>
</g>
<defs>
<filter id="filter0_d_183_4622" x="-4" y="0" width="64" height="43" filterUnits="userSpaceOnUse" color-interpolation-filters="sRGB">
<feFlood flood-opacity="0" result="BackgroundImageFix"/>
<feColorMatrix in="SourceAlpha" type="matrix" values="0 0 0 0 0 0 0 0 0 0 0 0 0 0 0 0 0 0 127 0" result="hardAlpha"/>
<feOffset dy="4"/>
<feGaussianBlur stdDeviation="2"/>
<feComposite in2="hardAlpha" operator="out"/>
<feColorMatrix type="matrix" values="0 0 0 0 0 0 0 0 0 0 0 0 0 0 0 0 0 0 0.25 0"/>
<feBlend mode="normal" in2="BackgroundImageFix" result="effect1_dropShadow_183_4622"/>
<feBlend mode="normal" in="SourceGraphic" in2="effect1_dropShadow_183_4622" result="shape"/>
</filter>
</defs>
</svg>
